<svg xmlns="http://www.w3.org/2000/svg" viewBox="0 0 64 64" role="img" aria-label="OpenClaw Favicon">
  <defs>
    <linearGradient id="bg" x1="0" y1="0" x2="1" y2="1">
      <stop offset="0%" stop-color="#48e7ff" />
      <stop offset="55%" stop-color="#2a72ff" />
      <stop offset="100%" stop-color="#6ef7c3" />
    </linearGradient>
    <radialGradient id="glow" cx="50%" cy="35%" r="70%">
      <stop offset="0%" stop-color="#dffbff" stop-opacity="0.65" />
      <stop offset="100%" stop-color="#dffbff" stop-opacity="0" />
    </radialGradient>
    <filter id="shadow" x="-40%" y="-40%" width="180%" height="180%">
      <feDropShadow dx="0" dy="3" stdDeviation="3" flood-color="#001d33" flood-opacity="0.55" />
    </filter>
  </defs>

  <rect x="4" y="4" width="56" height="56" rx="16" fill="url(#bg)" />
  <rect x="6" y="6" width="52" height="52" rx="14" fill="url(#glow)" />

  <g transform="translate(9 7) scale(2.9)" fill="#eafcff" filter="url(#shadow)">
    <path d="M6 12.5a.5.5 0 0 1 .5-.5h3a.5.5 0 0 1 0 1h-3a.5.5 0 0 1-.5-.5M3 8.062C3 6.76 4.235 5.765 5.53 5.886a26.6 26.6 0 0 0 4.94 0C11.765 5.765 13 6.76 13 8.062v1.157a.93.93 0 0 1-.765.935c-.845.147-2.34.346-4.235.346s-3.39-.2-4.235-.346A.93.93 0 0 1 3 9.219zm4.542-.827a.25.25 0 0 0-.217.068l-.92.9a25 25 0 0 1-1.871-.183.25.25 0 0 0-.068.495c.55.076 1.232.149 2.02.193a.25.25 0 0 0 .189-.071l.754-.736.847 1.71a.25.25 0 0 0 .404.062l.932-.97a25 25 0 0 0 1.922-.188.25.25 0 0 0-.068-.495c-.538.074-1.207.145-1.98.189a.25.25 0 0 0-.166.076l-.754.785-.842-1.7a.25.25 0 0 0-.182-.135"/>
    <path d="M8.5 1.866a1 1 0 1 0-1 0V3h-2A4.5 4.5 0 0 0 1 7.5V8a1 1 0 0 0-1 1v2a1 1 0 0 0 1 1v1a2 2 0 0 0 2 2h10a2 2 0 0 0 2-2v-1a1 1 0 0 0 1-1V9a1 1 0 0 0-1-1v-.5A4.5 4.5 0 0 0 10.5 3h-2zM14 7.5V13a1 1 0 0 1-1 1H3a1 1 0 0 1-1-1V7.5A3.5 3.5 0 0 1 5.5 4h5A3.5 3.5 0 0 1 14 7.5"/>
  </g>

  <circle cx="46" cy="18" r="3" fill="#dffbff" opacity="0.95" />
</svg>
